General
Complete name                    : The Dark Knight[2008]BRrip[Ac3-5.1]-=[CaLvIn]=-
Imdb Link                        : http://www.imdb.com/title/tt0468569
Format                           : AVI
Format/Info                      : Audio Video Interleave
File size                        : 1 002 MiB
Duration                         : 2h 32mn
Overall bit rate                 : 920 Kbps
Writing application              : VirtualDubMod 1.5.10.3 | www.virtualdub-fr.org || (build 2550/release)
Writing library                  : VirtualDubMod build 2550/release

Video
ID                               : 0
Format                           : MPEG-4 Visual
Format profile                   : Advanced Simple@L5
Format settings, BVOP            : 2
Format settings, QPel            : No
Format settings, GMC             : No warppoints
Format settings, Matrix          : Default (H.263)
Codec ID                         : XVID
Codec ID/Hint                    : XviD
Duration                         : 2h 32mn
Bit rate                         : 718 Kbps
Width                            : 720 pixels
Height                           : 400 pixels
Display aspect ratio             : 16:9
Frame rate                       : 23.976 fps
Color space                      : YUV
Chroma subsampling               : 4:2:0
Bit depth                        : 8 bits
Scan type                        : Progressive
Compression mode                 : Lossy
Bits/(Pixel*Frame)               : 0.104
Stream size                      : 782 MiB (78%)
Writing library                  : XviD 1.2.1 (UTC 2008-12-04)

Audio
ID                               : 1
Format                           : AC-3
Format/Info                      : Audio Coding 3
Mode extension                   : CM (complete main)
Codec ID                         : 2000
Duration                         : 2h 32mn
Bit rate mode                    : Constant
Bit rate                         : 192 Kbps
Channel(s)                       : 6 channels
Channel positions                : Front: L C R, Side: L R, LFE
Sampling rate                    : 48.0 KHz
Bit depth                        : 16 bits
Compression mode                 : Lossy
Stream size                      : 209 MiB (21%)
Alignment                        : Split accross interleaves
Interleave, duration             : 42 ms (1.00 video frame)
Interleave, preload duration     : 500 ms

Screens
 
http://img59.imageshack.us/img59/3370/53636144.png 
http://img14.imageshack.us/img14/6318/78884344.png 
http://img851.imageshack.us/img851/341/37297589.png 
http://img84.imageshack.us/img84/740/25257482.png 
http://img195.imageshack.us/img195/6599/23997640.png 
http://img805.imageshack.us/img805/2350/42305139.png 
http://img201.imageshack.us/img201/9517/96492722.png 
http://img840.imageshack.us/img840/6038/84804651.png 
http://img824.imageshack.us/img824/4142/14540027.png 
http://img135.imageshack.us/img135/3636/23540282.png
